<?xml version="1.0" encoding="utf-8"?>
<!-- Generator: Adobe Illustrator 25.1.0, SVG Export Plug-In . SVG Version: 6.00 Build 0)  -->
<svg version="1.1" id="Layer_1" xmlns="http://www.w3.org/2000/svg" xmlns:xlink="http://www.w3.org/1999/xlink" x="0px" y="0px"
	 viewBox="42 145 300 262" style="enable-background:new 42 145 300 262;" xml:space="preserve">
<style type="text/css">.st0,.st1{fill:currentColor;}</style>
<g>
	<path class="st1" d="M66.65,351.36h-6.12v16.19h-4.15v-16.19h-6.06v-3.97h16.33V351.36z"/>
	<path class="st1" d="M81.27,351.36h-8.24v3.77h5.74v3.92h-5.74v4.53h8.53v3.97H68.82v-20.16h12.44V351.36z"/>
	<path class="st1" d="M110.41,367.54h-4.67l-3.39-12.79l-3.68,12.79h-4.67l-5.08-20.16h4.38l3.28,14.27l3.71-14.27h4.35l3.6,14.27
		l3.48-14.27h4.21L110.41,367.54z"/>
	<path class="st1" d="M132.68,367.54h-4.5l-1.31-4.35h-6.12l-1.31,4.35h-4.26l6.44-20.22h4.82L132.68,367.54z M127.49,345.79h-7.28
		v-2.93h7.28V345.79z M121.57,359.54h4.53l-2.23-8.12L121.57,359.54z"/>
	<path class="st1" d="M150.58,367.54h-4.03l-7.43-11.81v11.81h-4.06v-20.16h3.63l7.86,12.44v-12.44h4.03V367.54z"/>
	<path class="st1" d="M170.44,367.54h-4.5l-1.31-4.35h-6.12l-1.31,4.35h-4.26l6.44-20.22h4.82L170.44,367.54z M159.33,359.54h4.53
		l-2.23-8.12L159.33,359.54z"/>
	<path class="st1" d="M188.33,367.54h-4.03l-7.43-11.81v11.81h-4.06v-20.16h3.63l7.86,12.44v-12.44h4.03V367.54z"/>
	<path class="st1" d="M206.6,348.83l-1.65,3.45c-0.81-0.52-2.23-1.28-4.18-1.28c-2.58,0-4.76,1.04-4.76,6.44
		c0,4.82,1.77,6.38,4.32,6.38c1.48,0,2.12-0.29,2.67-0.55v-6.82h4.18v9.46c-1.28,0.96-3.34,2.03-6.79,2.03
		c-5.45,0-8.82-2.26-8.82-10.56c0-7.98,3.74-10.41,8.76-10.41C203.3,346.97,205.41,347.93,206.6,348.83z"/>
	<path class="st1" d="M226.99,367.54h-4.5l-1.31-4.35h-6.12l-1.31,4.35h-4.26l6.44-20.22h4.82L226.99,367.54z M215.88,359.54h4.53
		l-2.23-8.12L215.88,359.54z"/>
	<path class="st1" d="M251.73,367.54h-4.5l-1.31-4.35h-6.12l-1.31,4.35h-4.26l6.44-20.22h4.82L251.73,367.54z M240.62,359.54h4.53
		l-2.23-8.12L240.62,359.54z"/>
	<path class="st1" d="M267.65,353.79c0,2.81-1.04,4.52-3.48,5.54l4.64,8.21h-4.58l-4.26-7.54h-1.65v7.54h-4.21v-20.16h6
		C266.37,347.38,267.65,349.61,267.65,353.79z M258.31,351.36v4.76h2.2c2.12,0,2.84-0.64,2.84-2.32c0-1.86-0.75-2.44-3.02-2.44
		H258.31z"/>
	<path class="st1" d="M287.92,357.36c0,7.77-2.73,10.59-8.82,10.59c-6.09,0-8.7-2.81-8.7-10.59c0-7.89,2.61-10.38,8.7-10.38
		C285.19,346.97,287.92,349.47,287.92,357.36z M274.84,357.39c0,5.13,1.04,6.64,4.26,6.64c3.28,0,4.44-1.51,4.44-6.64
		c0-5.05-1.19-6.44-4.44-6.44C275.88,350.95,274.84,352.34,274.84,357.39z"/>
	<path class="st1" d="M306.68,367.54h-4.03l-7.43-11.81v11.81h-4.06v-20.16h3.63l7.86,12.44v-12.44h4.03V367.54z"/>
	<path class="st1" d="M325.47,360.09c0,6.56-3.19,7.86-7.46,7.86c-4.7,0-7.6-1.31-7.6-7.98v-12.59h4.23v11.83
		c0,3.6,0.81,4.76,3.39,4.76c2.23,0,3.34-1.1,3.34-4.61v-11.98h4.09V360.09z"/>
	<path class="st1" d="M333.41,367.54h-4.21v-20.16h4.21V367.54z"/>
	<path class="st1" d="M64.39,392.16c0,7.77-2.73,10.59-8.82,10.59s-8.7-2.81-8.7-10.59c0-7.89,2.61-10.38,8.7-10.38
		S64.39,384.27,64.39,392.16z M51.31,392.19c0,5.13,1.04,6.64,4.26,6.64c3.28,0,4.44-1.51,4.44-6.64c0-5.05-1.19-6.44-4.44-6.44
		C52.35,385.75,51.31,387.14,51.31,392.19z"/>
	<path class="st1" d="M88.63,386.16h-6.12v16.19h-4.15v-16.19H72.3v-3.97h16.33V386.16z"/>
	<path class="st1" d="M105.22,402.34h-4.5l-1.31-4.35H93.3l-1.31,4.35h-4.26l6.44-20.22h4.82L105.22,402.34z M100.03,380.59h-7.28
		v-2.93h7.28V380.59z M94.11,394.34h4.53l-2.23-8.12L94.11,394.34z"/>
	<path class="st1" d="M128.42,402.34h-4.09v-11.98l-4.79,11.98h-2.87l-5.02-12.15v12.15h-4.06v-20.16h4.55l5.98,13.14l5.98-13.14
		h4.32V402.34z"/>
	<path class="st1" d="M148.31,402.34h-4.5l-1.31-4.35h-6.12l-1.31,4.35h-4.26l6.44-20.22h4.82L148.31,402.34z M137.2,394.34h4.53
		l-2.23-8.12L137.2,394.34z"/>
	<path class="st1" d="M159.01,391.67l7.72,10.67h-5.05l-6.53-8.93h-0.29v8.93h-4.18v-20.16h4.18v8.01h0.32l6-8.01h4.99
		L159.01,391.67z"/>
	<path class="st1" d="M173.02,402.34h-4.21v-20.16h4.21V402.34z"/>
	<path class="st1" d="M204.11,402.34h-4.09v-11.98l-4.79,11.98h-2.87l-5.02-12.15v12.15h-4.06v-20.16h4.55l5.98,13.14l5.97-13.14
		h4.32V402.34z"/>
	<path class="st1" d="M224,402.34h-4.5l-1.3-4.35h-6.12l-1.3,4.35h-4.26l6.44-20.22h4.82L224,402.34z M212.89,394.34h4.53
		l-2.23-8.12L212.89,394.34z"/>
	<path class="st1" d="M234.7,391.67l7.72,10.67h-5.05l-6.53-8.93h-0.29v8.93h-4.18v-20.16h4.18v8.01h0.32l6-8.01h4.99L234.7,391.67z
		"/>
	<path class="st1" d="M260.48,402.34h-4.5l-1.31-4.35h-6.12l-1.31,4.35h-4.26l6.44-20.22h4.82L260.48,402.34z M249.37,394.34h4.53
		l-2.23-8.12L249.37,394.34z"/>
	<path class="st1" d="M277.77,394.89c0,6.56-3.19,7.86-7.45,7.86c-4.7,0-7.6-1.31-7.6-7.98v-12.59h4.24v11.83
		c0,3.6,0.81,4.76,3.39,4.76c2.23,0,3.34-1.1,3.34-4.61v-11.98h4.09V394.89z"/>
	<path class="st1" d="M301.43,388.59c0,2.81-1.04,4.52-3.48,5.54l4.64,8.21h-4.58l-4.26-7.54h-1.65v7.54h-4.21v-20.16h6
		C300.15,382.18,301.43,384.42,301.43,388.59z M292.09,386.16v4.76h2.21c2.12,0,2.84-0.64,2.84-2.32c0-1.86-0.75-2.44-3.02-2.44
		H292.09z"/>
	<path class="st1" d="M320.8,402.34h-4.5l-1.3-4.35h-6.12l-1.3,4.35h-4.26l6.44-20.22h4.82L320.8,402.34z M309.69,394.34h4.53
		l-2.23-8.12L309.69,394.34z"/>
	<path class="st1" d="M338.09,394.89c0,6.56-3.19,7.86-7.46,7.86c-4.7,0-7.6-1.31-7.6-7.98v-12.59h4.23v11.83
		c0,3.6,0.81,4.76,3.39,4.76c2.23,0,3.34-1.1,3.34-4.61v-11.98h4.09V394.89z"/>
</g>
<g>
	<path class="st1" d="M102.98,223.65l1.75,9.39h-3.51L102.98,223.65z M112.72,239.67l-9.6-51.26h-0.31l-9.58,51.26H112.72z"/>
	<path class="st1" d="M120.32,279.07l-3.96-20.52H89.6l-3.95,20.52H63.72l27.4-121.7h24.64l27.37,121.7H120.32z M122.22,155.93
		c-0.69-3.04-3.37-5.18-6.46-5.18H91.12c-3.11,0-5.79,2.14-6.47,5.18l-27.4,121.69c-0.44,1.96,0.03,4.02,1.29,5.6
		c1.26,1.57,3.16,2.49,5.17,2.49h21.92c3.18,0,5.91-2.25,6.52-5.38l2.92-15.14h15.8l2.93,15.14c0.61,3.13,3.33,5.38,6.51,5.38
		l22.83,0.01c2.01,0,3.91-0.92,5.18-2.49c1.26-1.57,1.73-3.63,1.29-5.6L122.22,155.93z"/>
	<path class="st1" d="M231.37,260.05l-19.01,19.03h-30.43l-19.01-19.03V157.38h22.81v101.17h22.83V157.38h22.81V260.05z
		 M231.37,150.75h-22.81c-1.75,0-3.46,0.71-4.69,1.94c-1.23,1.24-1.95,2.95-1.95,4.69v94.54h-9.56v-94.54
		c0-1.74-0.71-3.45-1.95-4.69c-1.24-1.24-2.94-1.94-4.69-1.94h-22.8c-1.76,0-3.46,0.71-4.69,1.94c-1.23,1.24-1.95,2.95-1.95,4.69
		v102.68c0,1.74,0.7,3.46,1.95,4.68l19.01,19.03c1.26,1.25,2.92,1.94,4.68,1.94l30.44,0.01c1.78,0,3.44-0.7,4.69-1.95l19.01-19.03
		c1.24-1.23,1.93-2.94,1.93-4.68V157.38c0-1.74-0.7-3.45-1.94-4.69C234.82,151.45,233.11,150.75,231.37,150.75"/>
	<path class="st1" d="M321.72,177.92h-22.8v101.16h-22.83V177.92h-22.82v-20.54h68.45V177.92z M326.4,152.69
		c-1.23-1.23-2.94-1.94-4.69-1.94h-68.45c-1.75,0-3.46,0.71-4.69,1.94c-1.24,1.24-1.95,2.95-1.95,4.69v20.54
		c0,1.74,0.7,3.45,1.95,4.69c1.23,1.23,2.94,1.94,4.69,1.94h16.2v94.53c0,1.74,0.71,3.45,1.94,4.68c1.23,1.23,2.94,1.94,4.68,1.94
		h22.83c1.74,0,3.46-0.71,4.68-1.94c1.24-1.23,1.95-2.94,1.95-4.68v-94.54h16.16c1.74,0,3.45-0.71,4.69-1.94
		c1.23-1.23,1.95-2.94,1.95-4.69v-20.54C328.35,155.63,327.64,153.92,326.4,152.69"/>
</g>
</svg>
