<svg width="130" height="45" viewBox="0 0 130 45" fill="none" xmlns="http://www.w3.org/2000/svg">
<g clip-path="url(#clip0_444_964)">
<path d="M29.258 0.474976H14.7919C6.62256 0.474976 0 7.09753 0 15.2669V29.733C0 37.9023 6.62256 44.5249 14.7919 44.5249H29.258C37.4273 44.5249 44.0499 37.9023 44.0499 29.733V15.2669C44.0499 7.09753 37.4273 0.474976 29.258 0.474976Z" fill="#E9E9F7" fill-opacity="0.1"/>
<path d="M29.258 0.974976H14.7919C6.8987 0.974976 0.5 7.37368 0.5 15.2669V29.733C0.5 37.6262 6.8987 44.0249 14.7919 44.0249H29.258C37.1512 44.0249 43.5499 37.6262 43.5499 29.733V15.2669C43.5499 7.37368 37.1512 0.974976 29.258 0.974976Z" stroke="#E9E9F7" stroke-opacity="0.1"/>
<path fill-rule="evenodd" clip-rule="evenodd" d="M20.6639 10.1371C20.4619 10.0765 20.2607 10.0148 20.0616 9.95385C17.4698 9.15992 15.2301 8.47384 15.945 11.4016C16.6979 14.4847 18.0308 14.0854 21.2281 13.1278L21.4476 13.0621C24.804 12.0586 23.4965 10.9876 20.6639 10.1371ZM11.3102 15.7785C9.81782 16.1025 8.33986 15.3052 10.5265 12.8536C12.7131 10.4019 14.3778 8.69183 15.2454 11.5891C16.173 14.6868 15.2454 14.9242 11.3102 15.7785ZM11.6991 16.5036C15.473 15.4442 15.144 16.8978 13.5139 20.9961C12.7019 23.0376 10.6847 25.1342 9.43998 22.0877C8.19523 19.0412 7.92523 17.5631 11.6991 16.5036ZM22.5488 13.5777L22.6742 13.5439C25.7138 12.724 28.066 12.6504 27.8402 17.6344L27.8362 17.7289C27.7865 18.9341 27.6147 23.0967 22.5315 19.0569C17.3861 14.9677 19.8923 14.293 22.5488 13.5777ZM14.2077 21.6669C16.3773 15.7714 17.45 15.8933 21.95 19.5923C26.4501 23.2913 24.3137 24.5395 19.4741 25.8368C14.6345 27.1342 12.0381 27.5624 14.2077 21.6669ZM32.9668 16.8148C30.5714 14.4168 28.7239 13.6508 28.6121 17.9816C28.5003 22.3125 28.8321 23.4021 32.8259 22.2591C36.8197 21.1161 35.3621 19.2127 32.9668 16.8148ZM33.0279 23.0132C37.3928 21.9037 36.5737 25.003 35.8731 27.6537L35.872 27.6577C34.9624 31.0993 33.7532 32.4435 31.5174 28.8245C29.9046 26.214 28.6609 24.1232 33.0279 23.0132ZM25.7138 30.9337C27.1017 27.2864 28.6158 25.6823 31.0225 29.5112C33.4291 33.3402 33.6807 34.2891 28.5937 35.6368C23.5067 36.9845 24.7028 33.5903 25.7138 30.9337ZM24.9425 30.7608C27.0206 25.6102 24.2457 25.3855 19.6762 26.5909C15.1066 27.7963 11.961 28.6564 17.2002 32.8355C22.4243 37.0025 22.862 35.9178 24.9246 30.8054L24.9425 30.7608Z" fill="url(#paint0_linear_444_964)"/>
<path d="M117.656 15.6018C118.126 15.6018 118.566 15.8372 118.826 16.2289L122.57 21.8593L126.349 16.2199C126.608 15.8336 127.042 15.6018 127.507 15.6018C128.635 15.6018 129.296 16.8714 128.649 17.7954L124.558 23.6382L128.672 29.4708C129.325 30.3969 128.663 31.6746 127.53 31.6746C127.075 31.6746 126.649 31.4536 126.387 31.0821L122.57 25.6683L118.767 31.0767C118.503 31.4515 118.074 31.6746 117.615 31.6746C116.477 31.6746 115.809 30.3936 116.461 29.4605L120.53 23.6382L116.5 17.8059C115.856 16.8738 116.523 15.6018 117.656 15.6018Z" fill="#F0F0FA"/>
<path d="M108.306 31.9991C106.75 31.9991 105.411 31.6468 104.288 30.9422C103.171 30.2306 102.313 29.2505 101.713 28.0018C101.113 26.7531 100.813 25.323 100.813 23.7115C100.813 22.0791 101.12 20.6386 101.734 19.3899C102.348 18.1342 103.213 17.154 104.329 16.4494C105.446 15.7449 106.761 15.3926 108.274 15.3926C109.495 15.3926 110.583 15.6193 111.539 16.0727C112.495 16.5192 113.266 17.1471 113.852 17.9563C114.125 18.329 114.307 18.7305 114.436 19.1609C114.689 20.0109 113.951 20.792 113.064 20.792C112.362 20.792 111.784 20.2813 111.416 19.6843C111.23 19.3816 110.995 19.102 110.712 18.8457C110.12 18.3016 109.324 18.0295 108.327 18.0295C107.455 18.0295 106.691 18.2597 106.035 18.7202C105.386 19.1736 104.881 19.8224 104.518 20.6665C104.155 21.5036 103.974 22.4942 103.974 23.6383C103.974 24.8102 104.152 25.8218 104.507 26.6729C104.863 27.5239 105.365 28.1832 106.014 28.6506C106.67 29.118 107.441 29.3517 108.327 29.3517C108.92 29.3517 109.457 29.2435 109.938 29.0273C110.426 28.804 110.835 28.4866 111.162 28.075C111.26 27.9553 111.349 27.8285 111.429 27.6946C111.788 27.0961 112.358 26.5891 113.056 26.5891C113.946 26.5891 114.687 27.3747 114.432 28.2273C114.312 28.6308 114.143 29.0125 113.894 29.3726C113.329 30.1888 112.572 30.8306 111.623 31.298C110.681 31.7654 109.575 31.9991 108.306 31.9991Z" fill="#F0F0FA"/>
<path d="M97.4219 31.8734C96.8499 31.8734 96.3581 31.6711 95.9465 31.2665C95.5349 30.8549 95.3291 30.3596 95.3291 29.7806C95.3291 29.2086 95.5349 28.7202 95.9465 28.3156C96.3581 27.904 96.8499 27.6982 97.4219 27.6982C97.994 27.6982 98.4858 27.904 98.8974 28.3156C99.3089 28.7202 99.5147 29.2086 99.5147 29.7806C99.5147 30.1643 99.4171 30.5166 99.2217 30.8375C99.0334 31.1514 98.7822 31.4025 98.4683 31.5909C98.1544 31.7792 97.8056 31.8734 97.4219 31.8734Z" fill="#F0F0FA"/>
<path d="M83.9914 26.4966L83.9703 22.6415H84.5195L90.5762 16.2087C90.836 15.9328 91.1983 15.7763 91.5773 15.7763C92.7831 15.7763 93.4049 17.2177 92.5776 18.0948L87.3923 23.5921H86.8959L83.9914 26.4966ZM82.6659 31.9993C81.7939 31.9993 81.0869 31.2923 81.0869 30.4203V11.9476C81.0869 11.0756 81.7939 10.3687 82.6659 10.3687C83.538 10.3687 84.2449 11.0756 84.2449 11.9476V30.4203C84.2449 31.2923 83.538 31.9993 82.6659 31.9993ZM92.1019 31.9993C91.617 31.9993 91.1603 31.7716 90.8686 31.3843L85.5229 24.2891L87.6986 22.0817L93.333 29.5229C94.1031 30.54 93.3777 31.9993 92.1019 31.9993Z" fill="#F0F0FA"/>
<path d="M76.8192 10.3687C77.6913 10.3687 78.3982 11.0756 78.3982 11.9476V30.4203C78.3982 31.2923 77.6913 31.9993 76.8192 31.9993C75.9472 31.9993 75.2402 31.2923 75.2402 30.4203V11.9476C75.2402 11.0756 75.9472 10.3687 76.8192 10.3687Z" fill="#F0F0FA"/>
<path d="M70.9706 32C70.0985 32 69.3916 31.2931 69.3916 30.421V17.356C69.3916 16.484 70.0985 15.777 70.9706 15.777C71.8426 15.777 72.5496 16.484 72.5496 17.356V30.421C72.5496 31.2931 71.8426 32 70.9706 32ZM70.9864 13.7706C70.4372 13.7706 69.9654 13.5875 69.5711 13.2214C69.1839 12.8482 68.9902 12.4046 68.9902 11.8906C68.9902 11.3695 69.1839 10.9259 69.5711 10.5598C69.9654 10.1866 70.4372 10 70.9864 10C71.5356 10 72.0039 10.1866 72.3911 10.5598C72.7855 10.9259 72.9826 11.3695 72.9826 11.8906C72.9826 12.4046 72.7855 12.8482 72.3911 13.2214C72.0039 13.5875 71.5356 13.7706 70.9864 13.7706Z" fill="#F0F0FA"/>
<path d="M66.07 17.9633C66.6124 18.8238 66.2364 19.9246 65.2246 20.0289C64.4901 20.1047 63.8077 19.5328 63.3322 18.9679C63.0591 18.6433 62.7201 18.3753 62.3298 18.1865C61.8973 17.9772 61.3566 17.8726 60.7079 17.8726C59.8219 17.8726 59.0825 18.0714 58.4895 18.469C57.8965 18.8597 57.6 19.3654 57.6 19.9863C57.6 20.5235 57.7989 20.956 58.1965 21.2839C58.5941 21.6117 59.2359 21.8803 60.1219 22.0896L62.6751 22.6756C64.154 23.0174 65.2563 23.5441 65.9818 24.2557C66.7073 24.9672 67.07 25.8915 67.07 27.0286C67.07 27.9913 66.791 28.8494 66.2329 29.6028C65.6818 30.3492 64.9109 30.9352 63.9203 31.3608C62.9367 31.7863 61.7961 31.9991 60.4986 31.9991C58.6988 31.9991 57.2303 31.6154 56.0932 30.848C55.4028 30.3779 54.8744 29.7881 54.508 29.0787C54.1022 28.2929 54.7226 27.4419 55.597 27.3088C56.4039 27.1859 57.1226 27.7539 57.6443 28.3817C58.2465 29.1064 59.2025 29.4772 60.4777 29.4772C61.5031 29.4772 62.3228 29.2645 62.9367 28.8389C63.5506 28.4064 63.8576 27.8797 63.8576 27.2588C63.8576 26.7566 63.6692 26.3345 63.2925 25.9927C62.9228 25.6509 62.3542 25.3927 61.5869 25.2183L58.8662 24.6219C57.3663 24.2801 56.2572 23.7359 55.5386 22.9895C54.8271 22.2431 54.4713 21.2978 54.4713 20.1537C54.4713 19.205 54.7364 18.3748 55.2666 17.6633C55.7967 16.9517 56.5292 16.3971 57.464 15.9995C58.3988 15.5949 59.4696 15.3926 60.6765 15.3926C62.8967 15.3926 64.9546 16.1938 66.07 17.9633Z" fill="#F0F0FA"/>
</g>
<defs>
<linearGradient id="paint0_linear_444_964" x1="27.8489" y1="35.8365" x2="21.9289" y2="13.7436" gradientUnits="userSpaceOnUse">
<stop stop-color="#E9E9F7"/>
<stop offset="0.0001" stop-color="#C8C8D8"/>
<stop offset="1" stop-color="#F5F5FF"/>
</linearGradient>
<clipPath id="clip0_444_964">
<rect width="130" height="45" fill="white"/>
</clipPath>
</defs>
</svg>
